# xmcd CD database file
#
# Track frame offsets:
#	150
#	17882
#	32381
#	45865
#	76034
#	97048
#	114162
#	134156
#	150709
#	181395
#	202932
#	216993
#	239992
#	264248
#	285678
#
# Disc length: 4106 seconds
#
# Revision: 2
# Processed by: cddbd v1.4PL0 Copyright (c) Steve Scherf et al.
# Submitted via: CDex 1.50beta9
#
DISCID=ca10080f
DTITLE=Cross Canadian Ragweed - Live and Loud at Billy Bob's Texas (Rerelease)
DYEAR=2002
DGENRE=Country
TTITLE0=Long Way Home
TTITLE1=42 Miles
TTITLE2=Hey Hey
TTITLE3=On Your Own
TTITLE4=Run To Me
TTITLE5=Look At Me
TTITLE6=Time To Move On
TTITLE7=Crazy Eddie's Last Hurrah
TTITLE8=Mexican Sky
TTITLE9=If I Were President
TTITLE10=Alright
TTITLE11=Johnny's Song
TTITLE12=Bang My Head
TTITLE13=Carney Man
TTITLE14=Boys From Oklahoma
EXTD=YEAR: 2002
EXTT0=
EXTT1=
EXTT2=
EXTT3=
EXTT4=
EXTT5=
EXTT6=
EXTT7=
EXTT8=
EXTT9=
EXTT10=
EXTT11=
EXTT12=
EXTT13=
EXTT14=
PLAYORDER=
